<?xml version="1.0" encoding="UTF-8"?>
<svg version="1.1" xmlns="http://www.w3.org/2000/svg" width="225" height="225">
<path d="M0 0 C0.73084574 -0.00694553 1.46169149 -0.01389106 2.21468407 -0.02104706 C4.66459672 -0.03934927 7.11354453 -0.02904438 9.56349182 -0.01878357 C11.319501 -0.02584047 13.07550409 -0.03458451 14.83149719 -0.04489136 C19.60220446 -0.06742137 24.37258054 -0.06443716 29.1433208 -0.05556989 C33.12456905 -0.05046495 37.1057548 -0.05774857 41.08699661 -0.06504196 C50.4784684 -0.08205256 59.86977775 -0.07846357 69.26124573 -0.06175232 C78.95324746 -0.04482941 88.64479886 -0.06066525 98.3367514 -0.0929752 C106.65534661 -0.11965725 114.97380152 -0.12695086 123.29243523 -0.11846012 C128.2619371 -0.11352689 133.23116797 -0.11576786 138.20063591 -0.13624763 C142.87360914 -0.154583 147.54593384 -0.14867247 152.21887207 -0.12404823 C153.93414548 -0.1190335 155.64946812 -0.1225473 157.36470222 -0.13519669 C159.70628531 -0.15109943 162.04572549 -0.13620596 164.38720703 -0.11352539 C165.69741035 -0.11293908 167.00761366 -0.11235277 168.3575201 -0.1117487 C172.63403274 0.6762499 174.13710595 2.1036481 176.75709534 5.5146637 C177.0263122 10.01415792 175.97403259 12.60982843 173.10913086 15.93798828 C171.93100629 17.15764094 170.73614589 18.36126663 169.52833557 19.55152893 C168.87779709 20.21579391 168.22725861 20.8800589 167.55700684 21.56445312 C165.40835761 23.7496208 163.23834705 25.9119781 161.06568909 28.07325745 C159.56097122 29.58709906 158.05699916 31.10168231 156.55374146 32.61697388 C153.40194002 35.78663338 150.23904328 38.94469217 147.06837463 42.09547424 C143.00799588 46.13285955 138.98021438 50.20109965 134.96063137 54.27905178 C131.86311231 57.41327367 128.74717156 60.52865532 125.62555122 63.63885689 C124.132669 65.13143249 122.64597832 66.63022785 121.16569328 68.13529778 C119.09297302 70.23780122 116.99633538 72.31315569 114.89161682 74.38356018 C114.28609985 75.00841309 113.68058289 75.63326599 113.05671692 76.27705383 C109.95141132 79.27736637 107.88155118 80.88950408 103.46743774 80.99942017 C99.75709534 80.5146637 99.75709534 80.5146637 97.25709534 78.8896637 C95.20025383 75.63299797 94.9524105 74.31862839 95.75709534 70.5146637 C100.7247684 63.6640798 107.30216986 57.83870111 113.28443909 51.8896637 C114.28356562 50.89240693 115.28246813 49.89492567 116.28115845 48.89723206 C118.88456483 46.2976069 121.49096203 43.70100139 124.09803772 41.10505676 C126.76813808 38.44526607 129.43533811 35.78257029 132.10279846 33.12013245 C137.31809571 27.91549482 142.53656249 22.7140503 147.75709534 17.5146637 C146.58122722 17.51108117 146.58122722 17.51108117 145.38160419 17.50742626 C126.31097604 17.44830105 107.24047759 17.37276689 88.16998768 17.27894878 C78.94765172 17.23397518 69.72535451 17.19456413 60.50294495 17.16822815 C52.46508342 17.14526073 44.42734437 17.11187681 36.38957995 17.06596214 C32.13327538 17.04201292 27.87709224 17.0232953 23.62072182 17.01704979 C19.6143575 17.01100658 15.60830393 16.99103463 11.6020546 16.96038818 C10.13191192 16.95159566 8.66172865 16.9478879 7.19156075 16.94965553 C5.18328466 16.95130775 3.17502213 16.9328457 1.1668396 16.91339111 C-0.51865887 16.90647767 -0.51865887 16.90647767 -2.23820782 16.89942455 C-5.62197393 16.46612269 -7.50308908 15.51093935 -10.24290466 13.5146637 C-11.98984459 11.13247289 -12.2656674 9.96991837 -12.11790466 7.0146637 C-9.92040232 0.73608558 -6.24350368 0.01337965 0 0 Z " fill="#0D0D0D" transform="translate(25.242904663085938,125.48533630371094)"/>
<path d="M0 0 C3.15330139 2.38249438 4.72463062 3.96736482 5.75 7.8125 C3.71078828 16.47914983 -6.62137562 23.75228726 -12.74609375 29.84375 C-13.76764047 30.86342709 -14.78896326 31.88332856 -15.81007385 32.90344238 C-18.47266437 35.56225061 -21.13824599 38.21803958 -23.80450439 40.87316895 C-26.53492671 43.59328393 -29.26245074 46.31630185 -31.99023438 49.0390625 C-37.324022 54.36218863 -42.66097916 59.68212218 -48 65 C-47.21093419 64.99723462 -46.42186838 64.99446924 -45.60889149 64.99162006 C-26.41319699 64.9253801 -7.21752529 64.8757291 11.97825909 64.84456348 C21.26118256 64.82909161 30.54402977 64.80799596 39.8269043 64.77368164 C47.91743086 64.7437891 56.00790218 64.72442733 64.09848243 64.71773452 C68.3827837 64.71382201 72.66692695 64.70462043 76.9511776 64.68280983 C80.98372369 64.66244696 85.01604667 64.65616577 89.0486393 64.66067696 C90.52849159 64.65985166 92.00835135 64.65388471 93.48815918 64.64238358 C95.50948181 64.62744441 97.53092416 64.63283712 99.55229187 64.63923645 C100.68333186 64.63647107 101.81437185 64.63370569 102.97968578 64.63085651 C106.67171168 65.08209675 109.35124848 66.35124848 112 69 C112.23828125 70.9609375 112.23828125 70.9609375 112.3125 73.375 C112.36857422 74.56222656 112.36857422 74.56222656 112.42578125 75.7734375 C112 78 112 78 110.42649078 79.61493015 C107.09306137 81.51769138 104.58188292 81.38057914 100.75036621 81.38768005 C99.65303925 81.39575836 99.65303925 81.39575836 98.53354406 81.40399987 C96.08143655 81.41831125 93.62986645 81.41116812 91.17773438 81.40405273 C89.42010564 81.40975461 87.66248062 81.41671816 85.90486145 81.42485046 C81.13013537 81.44281604 76.35559272 81.44160726 71.58084297 81.43590808 C67.59702459 81.43282151 63.61324172 81.43890266 59.62942839 81.44494683 C50.2332283 81.45900125 40.83711913 81.45742278 31.44091797 81.44604492 C21.74100608 81.434559 12.04137052 81.44864526 2.34149504 81.4754414 C-5.98216595 81.49757642 -14.30574005 81.50424085 -22.62942839 81.49836498 C-27.60277644 81.49498939 -32.57594727 81.49745053 -37.54927063 81.51461601 C-42.22461752 81.5300484 -46.89955396 81.52617102 -51.57488441 81.50731087 C-53.29219291 81.50361486 -55.00953158 81.50676281 -56.72681236 81.51719666 C-59.06847436 81.53033961 -61.40876398 81.51892034 -63.75036621 81.50120544 C-65.71705387 81.50089152 -65.71705387 81.50089152 -67.7234726 81.50057125 C-71.54415487 80.91686678 -72.69853508 80.04047019 -75 77 C-75.9375 74.5625 -75.9375 74.5625 -76 72 C-73.71646371 67.32739236 -70.27956694 64.00267217 -66.63256836 60.38964844 C-65.67112663 59.42535919 -65.67112663 59.42535919 -64.69026184 58.44158936 C-62.57830515 56.32593905 -60.45925428 54.2175561 -58.33984375 52.109375 C-56.86882171 50.6395454 -55.3981695 49.16934558 -53.9278717 47.6987915 C-50.85010034 44.62258242 -47.7690032 41.5497575 -44.68530273 38.47949219 C-40.7266298 34.53784602 -36.77460902 30.5896116 -32.82482052 26.63906479 C-29.79089221 23.6054079 -26.75436861 20.57436037 -23.71695137 17.54419708 C-22.25825478 16.08868857 -20.80016827 14.63256838 -19.34269524 13.17583466 C-17.31031478 11.14561415 -15.27468083 9.11871597 -13.23803711 7.09277344 C-12.63279205 6.4870752 -12.027547 5.88137695 -11.40396118 5.25732422 C-5.35309016 -0.74694281 -5.35309016 -0.74694281 0 0 Z " fill="#0D0D0D" transform="translate(99,18)"/>
<path d="M0 0 C-0.598125 0.433125 -1.19625 0.86625 -1.8125 1.3125 C-3.70783087 2.77461239 -5.3528593 4.27050227 -7 6 C-7.66 5.67 -8.32 5.34 -9 5 C-5.28508772 -1.58552632 -5.28508772 -1.58552632 0 0 Z " fill="#303030" transform="translate(22,127)"/>
</svg>
